<svg width="29" height="37" viewBox="0 0 29 37" fill="none" xmlns="http://www.w3.org/2000/svg">
<path d="M20.928 36.816C18.432 36.816 17.184 35.744 17.184 33.6C17.184 32.896 17.28 32.096 17.472 31.2C17.696 30.272 18 29.088 18.384 27.648C18.832 26.144 19.168 24.864 19.392 23.808C19.616 22.752 19.728 21.808 19.728 20.976C19.728 18.8 18.768 17.712 16.848 17.712C16.336 17.712 15.808 17.776 15.264 17.904L11.424 36H4.512L11.04 5.472L18.144 4.512L15.792 15.6H16.176C17.424 15.6 18.576 15.168 19.632 14.304C20.688 13.44 21.504 12.368 22.08 11.088C22.688 9.776 22.992 8.496 22.992 7.248C22.992 5.776 22.544 4.576 21.648 3.648C20.784 2.688 19.472 2.208 17.712 2.208C15.12 2.208 12.848 2.672 10.896 3.6C8.944 4.528 7.424 5.872 6.336 7.632C5.28 9.392 4.752 11.472 4.752 13.872C4.752 15.056 4.864 15.888 5.088 16.368C5.312 16.816 5.424 17.072 5.424 17.136C3.696 17.136 2.4 16.784 1.536 16.08C0.704 15.344 0.288 14.144 0.288 12.48C0.288 10.432 1.12 8.448 2.784 6.528C4.48 4.576 6.64 3.008 9.264 1.824C11.888 0.607998 14.512 -2.86102e-06 17.136 -2.86102e-06C19.536 -2.86102e-06 21.552 0.351997 23.184 1.056C24.816 1.76 26.032 2.704 26.832 3.888C27.632 5.04 28.032 6.304 28.032 7.68C28.032 9.184 27.568 10.688 26.64 12.192C25.712 13.696 24.448 14.928 22.848 15.888C24.064 16.24 24.912 16.832 25.392 17.664C25.904 18.464 26.16 19.472 26.16 20.688C26.16 21.616 26.048 22.608 25.824 23.664C25.6 24.688 25.28 25.968 24.864 27.504C24.608 28.496 24.368 29.472 24.144 30.432C23.92 31.392 23.808 32.192 23.808 32.832C23.808 33.568 23.968 34.224 24.288 34.8C24.64 35.376 25.104 35.776 25.68 36C23.728 36.544 22.144 36.816 20.928 36.816Z" fill="white"/>
</svg>
