<svg width="36" height="36" viewBox="0 0 36 36" fill="none" xmlns="http://www.w3.org/2000/svg">
<path d="M32.925 13.0815L32.8875 12.8295L32.8485 12.8385C32.5819 11.5921 31.9679 10.4465 31.0775 9.53453C30.187 8.6225 29.0566 7.98124 27.8169 7.68493C26.5771 7.38861 25.2789 7.44937 24.0723 7.86016C22.8657 8.27095 21.8 9.01499 20.9986 10.0062C20.1973 10.9974 19.6929 12.1952 19.5439 13.4611C19.395 14.727 19.6075 16.0092 20.1569 17.1594C20.7062 18.3095 21.5701 19.2806 22.6483 19.9603C23.7266 20.64 24.9753 21.0004 26.25 21C26.5845 21 26.9055 20.949 27.225 20.9025C27.1215 21.2505 27.015 21.6045 26.844 21.9225C26.673 22.3845 26.406 22.785 26.1405 23.1885C25.9185 23.625 25.527 23.9205 25.239 24.294C24.9375 24.657 24.5265 24.8985 24.201 25.2C23.8815 25.515 23.463 25.6725 23.13 25.8945C22.782 26.094 22.479 26.3145 22.155 26.4195L21.3465 26.7525L20.6355 27.048L21.3615 29.9565L22.257 29.7405C22.5435 29.6685 22.893 29.5845 23.2905 29.484C23.697 29.409 24.1305 29.2035 24.6135 29.016C25.089 28.8015 25.6425 28.659 26.1555 28.3155C26.6715 27.9885 27.267 27.7155 27.792 27.2775C28.3005 26.826 28.914 26.4345 29.367 25.8615C29.862 25.3245 30.351 24.7605 30.7305 24.1185C31.17 23.5065 31.4685 22.8345 31.7835 22.17C32.0685 21.5055 32.298 20.826 32.4855 20.166C32.841 18.843 33 17.586 33.0615 16.5105C33.1125 15.4335 33.0825 14.538 33.0195 13.89C32.9984 13.6194 32.9669 13.3497 32.925 13.0815V13.0815ZM16.425 13.0815L16.3875 12.8295L16.3485 12.8385C16.0819 11.5921 15.4679 10.4465 14.5775 9.53453C13.687 8.6225 12.5566 7.98124 11.3169 7.68493C10.0771 7.38861 8.77888 7.44937 7.57226 7.86016C6.36565 8.27095 5.30001 9.01499 4.49863 10.0062C3.69726 10.9974 3.19291 12.1952 3.04394 13.4611C2.89497 14.727 3.10748 16.0092 3.65686 17.1594C4.20624 18.3095 5.07005 19.2806 6.14834 19.9603C7.22663 20.64 8.47533 21.0004 9.74995 21C10.0845 21 10.4055 20.949 10.725 20.9025C10.6215 21.2505 10.515 21.6045 10.344 21.9225C10.173 22.3845 9.90596 22.785 9.64046 23.1885C9.41846 23.625 9.02696 23.9205 8.73896 24.294C8.43746 24.657 8.02645 24.8985 7.70095 25.2C7.38145 25.515 6.96296 25.6725 6.62996 25.8945C6.28196 26.094 5.97896 26.3145 5.65496 26.4195L4.84645 26.7525C4.39495 26.937 4.13695 27.045 4.13695 27.045L4.86296 29.9535L5.75846 29.7375C6.04496 29.6655 6.39445 29.5815 6.79195 29.481C7.19845 29.406 7.63195 29.2005 8.11495 29.013C8.59046 28.7985 9.14396 28.656 9.65696 28.3125C10.173 27.9855 10.7685 27.7125 11.2935 27.2745C11.802 26.823 12.4155 26.4315 12.8685 25.8585C13.3635 25.3215 13.8525 24.7575 14.232 24.1155C14.6715 23.5035 14.97 22.8315 15.285 22.167C15.57 21.5025 15.7995 20.823 15.987 20.163C16.3425 18.84 16.5015 17.583 16.563 16.5075C16.614 15.4305 16.584 14.535 16.521 13.887C16.4986 13.6174 16.4665 13.3488 16.425 13.0815V13.0815Z" fill="#FFB703"/>
</svg>
