<svg width="25" height="24" viewBox="0 0 25 24" fill="none" xmlns="http://www.w3.org/2000/svg">
<path d="M16.6666 8C18.3242 8 19.9139 8.63214 21.086 9.75736C22.2581 10.8826 22.9166 12.4087 22.9166 14V21H18.75V14C18.75 13.4696 18.5305 12.9609 18.1398 12.5858C17.7491 12.2107 17.2192 12 16.6666 12C16.1141 12 15.5842 12.2107 15.1935 12.5858C14.8028 12.9609 14.5833 13.4696 14.5833 14V21H10.4166V14C10.4166 12.4087 11.0751 10.8826 12.2472 9.75736C13.4193 8.63214 15.009 8 16.6666 8V8Z" stroke="white" stroke-linecap="round" stroke-linejoin="round"/>
<path d="M6.25004 9H2.08337V21H6.25004V9Z" stroke="white" stroke-linecap="round" stroke-linejoin="round"/>
<path d="M4.16671 6C5.3173 6 6.25004 5.10457 6.25004 4C6.25004 2.89543 5.3173 2 4.16671 2C3.01611 2 2.08337 2.89543 2.08337 4C2.08337 5.10457 3.01611 6 4.16671 6Z" stroke="white" stroke-linecap="round" stroke-linejoin="round"/>
</svg>
