<svg width="36" height="36" viewBox="0 0 36 36" fill="none" xmlns="http://www.w3.org/2000/svg">
<path d="M9.74997 14.9999C9.41547 14.9999 9.09447 15.0509 8.77497 15.0974C8.87847 14.7494 8.98497 14.3954 9.15597 14.0774C9.32697 13.6154 9.59397 13.2149 9.85947 12.8114C10.0815 12.3749 10.473 12.0794 10.761 11.7059C11.0625 11.3429 11.4735 11.1014 11.799 10.7999C12.1185 10.4849 12.537 10.3274 12.87 10.1054C13.218 9.90592 13.521 9.68542 13.845 9.58042L14.6535 9.24742L15.3645 8.95192L14.637 6.04492L13.7415 6.26092C13.455 6.33292 13.1055 6.41692 12.708 6.51742C12.3015 6.59242 11.868 6.79792 11.385 6.98542C10.908 7.19842 10.356 7.34242 9.84297 7.68442C9.32697 8.01142 8.73147 8.28442 8.20647 8.72242C7.69797 9.17392 7.08447 9.56542 6.63147 10.1399C6.13647 10.6769 5.64747 11.2409 5.26797 11.8829C4.82847 12.4949 4.52997 13.1669 4.21497 13.8314C3.92997 14.4959 3.70047 15.1754 3.51297 15.8354C3.15747 17.1584 2.99847 18.4154 2.93697 19.4909C2.88597 20.5679 2.91597 21.4634 2.97897 22.1114C3.00147 22.4174 3.04347 22.7144 3.07347 22.9199L3.11097 23.1719L3.14997 23.1629C3.41677 24.4092 4.03093 25.5544 4.92142 26.4662C5.81191 27.378 6.94234 28.019 8.18193 28.3152C9.42153 28.6113 10.7196 28.5505 11.9261 28.1397C13.1326 27.7289 14.1981 26.9849 14.9994 25.9938C15.8007 25.0028 16.305 23.8051 16.4541 22.5394C16.6032 21.2736 16.3908 19.9916 15.8417 18.8415C15.2925 17.6914 14.429 16.7202 13.351 16.0404C12.2729 15.3606 11.0245 14.9998 9.74997 14.9999V14.9999ZM26.25 14.9999C25.9155 14.9999 25.5945 15.0509 25.275 15.0974C25.3785 14.7494 25.485 14.3954 25.656 14.0774C25.827 13.6154 26.094 13.2149 26.3595 12.8114C26.5815 12.3749 26.973 12.0794 27.261 11.7059C27.5625 11.3429 27.9735 11.1014 28.299 10.7999C28.6185 10.4849 29.037 10.3274 29.37 10.1054C29.718 9.90592 30.021 9.68542 30.345 9.58042L31.1535 9.24742L31.8645 8.95192L31.137 6.04492L30.2415 6.26092C29.955 6.33292 29.6055 6.41692 29.208 6.51742C28.8015 6.59242 28.368 6.79792 27.885 6.98542C27.4095 7.19992 26.856 7.34242 26.343 7.68592C25.827 8.01292 25.2315 8.28592 24.7065 8.72392C24.198 9.17542 23.5845 9.56692 23.1315 10.1399C22.6365 10.6769 22.1475 11.2409 21.768 11.8829C21.3285 12.4949 21.03 13.1669 20.715 13.8314C20.43 14.4959 20.2005 15.1754 20.013 15.8354C19.6575 17.1584 19.4985 18.4154 19.437 19.4909C19.386 20.5679 19.416 21.4634 19.479 22.1114C19.5015 22.4174 19.5435 22.7144 19.5735 22.9199L19.611 23.1719L19.65 23.1629C19.9168 24.4092 20.5309 25.5544 21.4214 26.4662C22.3119 27.378 23.4423 28.019 24.6819 28.3152C25.9215 28.6113 27.2196 28.5505 28.4261 28.1397C29.6326 27.7289 30.6981 26.9849 31.4994 25.9938C32.3007 25.0028 32.805 23.8051 32.9541 22.5394C33.1032 21.2736 32.8908 19.9916 32.3417 18.8415C31.7925 17.6914 30.929 16.7202 29.851 16.0404C28.7729 15.3606 27.5245 14.9998 26.25 14.9999V14.9999Z" fill="#FFB703"/>
</svg>
